HIERARCHY
ROOT pelvis
{
  OFFSET 0 100 0
  CHANNELS 6 Xposition Yposition Zposition Zrotation Xrotation Yrotation
  JOINT pelvis_right_femur
  {
    OFFSET -10.78128 -3.44521 -0.5502486
    CHANNELS 3 Zrotation Xrotation Yrotation
    JOINT right_femur_tibia
    {
      OFFSET -0.8047443 -44.0398 -0.1307829
      CHANNELS 3 Zrotation Xrotation Yrotation
      JOINT right_tibia_foot
      {
        OFFSET 3.006224 -47.83518 -5
        CHANNELS 3 Zrotation Xrotation Yrotation
        End Site
        {
          OFFSET 0 -5 15
        }
      }
    }
  }
  JOINT pelvis_left_femur
  {
    OFFSET 10.78128 -3.44521 -0.5502486
    CHANNELS 3 Zrotation Xrotation Yrotation
    JOINT left_femur_tibia
    {
      OFFSET 0.8047443 -44.0398 -0.1307829
      CHANNELS 3 Zrotation Xrotation Yrotation
      JOINT left_tibia_foot
      {
        OFFSET -4.370144 -48.10324 -4.275266
        CHANNELS 3 Zrotation Xrotation Yrotation
        End Site
        {
          OFFSET 0 -5 15
        }
      }
    }
  }
  JOINT pelvis_spine1
  {
    OFFSET 0 6.468898 -3.129235
    CHANNELS 3 Zrotation Xrotation Yrotation
    JOINT spine1
    {
      OFFSET 0 23.15396 4.99043
      CHANNELS 3 Zrotation Xrotation Yrotation
      JOINT spine2
      {
        OFFSET 0 20.79997 -5.064912
        CHANNELS 3 Zrotation Xrotation Yrotation
        JOINT neck
        {
          OFFSET 0 14.38658 9.616178
          CHANNELS 3 Zrotation Xrotation Yrotation
          End Site
          {
            OFFSET 0 20 0
          }
        }
      }
      JOINT right_manubrium
      {
        OFFSET -5.722621 16.35077 3.967754
        CHANNELS 3 Zrotation Xrotation Yrotation
        JOINT right_clavicle
        {
          OFFSET -13.16364 1.694482 -4.693211
          CHANNELS 3 Zrotation Xrotation Yrotation
          JOINT right_humerus
          {
            OFFSET -28.5034 -0.3100689 -2.792744
            CHANNELS 3 Zrotation Xrotation Yrotation
            JOINT right_radius
            {
              OFFSET -25.15693 0.02248979 -1.271978
              CHANNELS 3 Zrotation Xrotation Yrotation
              End Site
              {
                OFFSET -15 0 0
              }
            }
          }
        }
      }
      JOINT left_manubrium
      {
        OFFSET 5.722621 16.35077 3.967754
        CHANNELS 3 Zrotation Xrotation Yrotation
        JOINT left_clavicle
        {
          OFFSET 13.16364 1.694482 -4.693211
          CHANNELS 3 Zrotation Xrotation Yrotation
          JOINT left_humerus
          {
            OFFSET 29.39168 -1.063119 -2.237045
            CHANNELS 3 Zrotation Xrotation Yrotation
            JOINT left_radius
            {
              OFFSET 24.59957 -0.9528479 0.9047498
              CHANNELS 3 Zrotation Xrotation Yrotation
              End Site
              {
                OFFSET 15 -0 -0
              }
            }
          }
        }
      }
    }
  }
}
MOTION
Frames: 19
Frame Time: 0.0416666666667
0 103.5113 0 2.022549 -0.7374264 0.1239555 2.720571 -15.07061 9.861371 -0 41.44442 -0 -3.732675 -17.94967 -3.475545 -8.50227 9.987367 -22.69238 -0 3.202594 -0 16.30008 -13.03191 30.11155 -5.220252 -4.38474 5.007439 3.130469 9.971263 -7.782693 1.077724 22.21695 6.343707 1.967098 -24.49703 9.664124 6.545653 -20.13419 11.86076 85.32078 37.7706 -17.47834 -0 0 15.69518 -6.483791 7.851308 4.847811 5.43393 -18.59247 -0.9666316 -91.00584 20.08863 19.08651 0 0 -14.4136 15.37073 13.46071 -4.666907
0.4029395 104.1335 1.719648 1.726815 0.05227962 0.2247539 3.43679 -17.08582 9.740883 -0 39.35275 -0 -3.89979 -16.36317 -2.985225 -8.397099 9.925791 -22.2025 -0 3.40889 -0 16.48633 -13.37516 29.78312 -4.940595 -4.272366 5.112036 3.214663 10.19984 -7.891738 1.033408 21.77877 6.495857 2.153741 -25.00628 9.691492 6.509022 -20.31824 11.95319 85.6003 38.06691 -17.87305 -0 0 15.56625 -6.397153 7.808014 4.908111 5.673677 -19.08373 -0.9405164 -90.82429 19.34315 19.22363 0 0 -15.61101 15.99628 12.76742 -5.208191
0.7813705 104.3648 4.037641 1.341382 1.147027 0.3367208 3.850816 -21.80478 7.764566 -0 30.73873 -0 -4.674327 -13.33929 -2.275149 -7.855846 11.78531 -21.04039 -0 2.460673 -0 14.31447 -16.27616 27.42104 -4.588424 -3.868503 4.841456 3.280373 9.889548 -8.069048 1.064354 21.50449 6.662592 2.597008 -25.36588 9.423583 5.898991 -19.9017 11.71409 86.71647 37.16589 -19.69897 -0 0 14.05434 -7.246295 7.787339 5.303783 6.245725 -20.47458 -1.352051 -89.90847 21.03753 17.97005 0 0 -19.78679 14.18042 13.25678 -2.726583
1.144622 104.3786 6.776523 0.8884652 2.013316 0.5043631 4.406821 -25.25441 6.740268 -0 25.56042 -0 -5.28244 -10.97725 -1.746431 -7.428553 12.72286 -20.11485 -0 2.613693 -0 12.90708 -17.89402 25.77893 -4.165515 -3.545492 4.66597 3.343723 9.813584 -8.193322 1.113171 21.21311 6.795926 2.855425 -25.79412 9.382769 5.499099 -19.6804 11.60043 87.42909 36.58147 -20.78167 -0 0 13.13757 -7.727177 7.872598 5.541115 6.604961 -21.37798 -1.536385 -89.4384 21.69635 17.40873 0 0 -22.16899 13.48455 13.31819 -1.581692
1.499926 104.3516 9.742694 0.3921673 2.60747 0.7268576 5.11922 -27.31188 6.607654 -0 23.36519 -0 -5.649314 -9.507501 -1.443842 -7.045048 12.88338 -19.61847 -0 3.876208 -0 11.77527 -18.68354 24.7492 -3.700661 -3.269793 4.565682 3.390088 9.799502 -8.221026 1.223381 20.97474 6.886098 2.984855 -26.24306 9.550013 5.35439 -19.56044 11.54771 87.60164 36.22204 -21.15572 -0 0 12.9153 -7.845304 8.110562 5.550286 6.746653 -21.67578 -1.513869 -89.70573 22.12142 17.75923 0 0 -22.65883 13.10602 13.45666 -0.8591307
1.851069 104.355 12.94066 -0.1970328 3.232407 1.008897 6.059779 -29.27765 6.791605 -0 21.79247 -0 -6.027249 -8.066627 -1.154359 -6.615618 12.84172 -19.12347 -0 5.655268 -0 10.67578 -19.20284 23.79339 -3.138814 -2.974254 4.472919 3.430867 9.836037 -8.239667 1.346035 20.67645 6.988099 3.108336 -26.73773 9.782843 5.273011 -19.46145 11.51615 87.68954 36.03483 -21.38331 -0 0 12.85483 -7.818528 8.394328 5.471999 6.848694 -21.85817 -1.43503 -90.10992 22.3243 18.34809 0 0 -22.79698 12.94307 13.46242 -0.3842206
2.19183 104.4073 16.43207 -0.9063837 3.886689 1.364647 7.199539 -31.43041 7.086733 -0 20.21705 -0 -6.531416 -6.506186 -0.8851259 -6.064712 12.85492 -18.5018 -0 7.892083 -0 9.254565 -19.65496 22.60251 -2.446803 -2.60818 4.30766 3.451678 9.853592 -8.259368 1.484824 20.34925 7.101351 3.246507 -27.20651 10.03648 5.175972 -19.27471 11.45977 87.81835 35.90215 -21.61788 -0 0 12.75029 -7.75383 8.71763 5.341569 6.92979 -22.01912 -1.367408 -90.49265 22.56426 18.92607 0 0 -22.93223 12.71641 13.41598 0.1791591
2.505913 104.516 20.32965 -1.728527 4.502566 1.803921 8.492169 -33.74188 7.395874 -0 18.51093 -0 -7.260596 -4.855071 -0.6996727 -5.356728 13.1062 -17.634 -0 10.66978 -0 7.390274 -19.92977 21.0266 -1.609306 -2.164696 4.004623 3.430685 9.823774 -8.295862 1.625437 20.02896 7.211848 3.383108 -27.52662 10.25859 4.995557 -18.90731 11.34725 88.13782 35.83473 -21.95447 -0 0 12.41022 -7.693255 9.043709 5.170445 6.965976 -22.20381 -1.36693 -90.60454 22.8473 19.18662 0 0 -23.30913 12.39742 13.2411 0.844643
2.762668 104.7034 24.77496 -2.595887 4.85675 2.308814 9.751873 -35.70645 7.609872 -0 17.04354 -0 -8.278619 -3.44206 -0.7805217 -4.48316 13.7518 -16.46122 -0 14.29708 -0 4.956655 -19.69639 18.98364 -0.6468492 -1.662566 3.485768 3.329366 9.685517 -8.346995 1.751527 19.83034 7.274228 3.455893 -27.46301 10.37601 4.672823 -18.21807 11.13794 88.77918 35.84049 -22.41743 -0 0 11.63538 -7.670908 9.325502 4.954608 6.860037 -22.35026 -1.498884 -90.19133 23.24155 18.78194 0 0 -23.93397 11.88064 12.91015 1.677979
2.919252 105.048 29.90874 -3.32014 4.548067 2.788727 10.54556 -36.16585 7.497542 -0 16.62806 -0 -9.562349 -2.913195 -1.428739 -3.524942 14.82992 -15.00141 -0 19.42741 -0 1.950487 -18.33113 16.54409 0.3415106 -1.172279 2.715936 3.098899 9.363675 -8.384808 1.831287 19.96004 7.204386 3.356506 -26.6659 10.27018 4.163796 -17.05064 10.80537 89.85997 35.89672 -22.96809 -0 0 10.2077 -7.748543 9.485762 4.713869 6.433008 -22.29637 -1.843931 -88.9961 23.80757 17.33564 0 0 -24.5994 10.98847 12.43251 2.785266
2.953955 105.7438 35.76182 -3.597894 3.18384 3.056372 10.34238 -33.37329 6.832705 -0 18.18844 -0 -10.82705 -4.042389 -2.837224 -2.725771 15.74233 -13.49809 -0 27.14982 -0 -1.412799 -15.18359 14.04418 1.143334 -0.7921424 1.891355 2.729802 8.818475 -8.309583 1.825783 20.62821 6.911639 3.013177 -24.93281 9.825593 3.58578 -15.43751 10.41589 91.1638 35.9176 -23.34252 -0 0 8.256295 -8.0021 9.481085 4.541241 5.494915 -21.73584 -2.402332 -87.27131 24.64682 15.1083 0 0 -24.59066 9.362957 11.99491 4.484087
2.941307 107.074 42.06823 -3.305804 1.192097 2.955014 9.289108 -26.72671 5.805732 -0 21.02839 -0 -11.48359 -6.724405 -4.29274 -2.400249 14.57971 -12.428 -0 37.8999 -0 -4.615091 -10.62085 11.85332 1.551141 -0.5153445 1.653107 2.360085 8.210471 -7.971421 1.682389 21.63782 6.458218 2.609621 -22.97806 9.053837 3.404839 -14.05924 10.22806 91.70827 35.98692 -22.96585 -0 0 6.920481 -8.409848 9.456679 4.679101 4.16141 -20.48226 -2.896307 -86.45864 25.85505 14.11884 0 0 -22.9746 6.747601 11.94104 7.177803
3.032258 109.0961 48.27649 -2.766661 0.06535187 2.534978 8.255312 -19.02966 4.700552 -0 21.92057 -0 -11.25166 -9.321445 -4.218433 -2.554992 9.585276 -11.96736 -0 48.89042 -0 -6.837966 -6.72617 9.878022 1.548154 -0.164224 2.535021 2.213667 7.911873 -7.400378 1.348122 22.26878 6.100687 2.503395 -22.34366 8.129216 4.053473 -13.96326 10.49992 90.4723 36.58639 -21.50602 -0 0 7.642347 -8.851417 9.737271 5.39823 3.031691 -19.06979 -2.909732 -87.97363 27.08219 16.58999 0 0 -20.1419 3.910416 12.36661 10.3408
3.256111 111.394 54.02319 -2.118989 -0.1016543 1.929669 7.462976 -13.15986 3.578784 -0 19.58306 -0 -10.70315 -10.58207 -2.807569 -2.824099 2.361651 -11.52714 -0 56.2087 -0 -7.460444 -5.086743 8.516581 1.095773 0.3599209 3.995484 2.216614 8.102405 -6.809045 1.000043 22.39535 5.824756 2.655954 -22.82804 7.237636 5.081951 -14.91106 11.0662 88.10874 37.6352 -19.40089 -0 0 9.655816 -9.522919 10.36874 6.506582 2.555229 -18.34241 -2.55393 -90.30448 27.40101 20.28302 0 0 -17.84872 2.341153 12.85944 12.19947
3.490186 113.4659 59.30744 -1.191076 -0.8118849 1.237835 6.606519 -8.439264 2.808599 -0 16.13841 -0 -10.31839 -10.9272 -1.77195 -2.851668 -4.549563 -10.51409 -0 59.25682 -0 -6.758588 -5.23916 8.967481 0.1473142 1.002245 5.232849 2.095204 8.614756 -6.221333 0.9294517 22.60219 5.391563 2.792646 -22.69285 6.443047 5.705308 -15.84733 11.56943 85.88241 38.22547 -17.05263 -0 0 11.20939 -10.75797 10.95745 7.559411 2.656644 -18.3391 -2.263431 -91.21337 26.70726 21.61552 0 0 -16.69221 2.268264 12.9496 12.03501
3.632987 115.0571 64.2312 -0.2180145 -2.233679 0.5774464 5.785612 -3.77735 2.479045 -0 12.97311 -0 -10.10912 -11.33052 -1.546188 -2.425122 -10.63091 -8.954357 -0 58.17654 -0 -5.411772 -6.070265 11.1682 -0.9371511 1.609153 6.024564 1.809539 9.141486 -5.628376 1.05941 23.05041 4.88685 2.824065 -21.63213 5.779125 5.664876 -16.59391 11.89492 84.11736 37.92278 -14.53785 -0 0 12.11586 -12.41283 11.09221 8.532368 3.08403 -18.62336 -2.148914 -90.97752 25.61907 20.87779 0 0 -16.12617 2.842653 12.57072 10.84153
3.693158 116.0671 68.93898 0.425757 -3.506916 -0.01105168 5.230066 0.8510674 2.299163 -0 10.13061 -0 -9.918479 -12.36759 -1.581318 -1.510391 -16.1193 -7.176517 -0 53.08444 -0 -4.032433 -6.808108 13.95547 -1.701769 2.010855 6.467113 1.471531 9.450234 -5.089944 1.150692 23.50631 4.554452 2.774857 -20.40126 5.312391 5.103089 -17.43807 12.06988 82.63486 36.91309 -11.96366 -0 0 13.02312 -14.16977 10.71281 9.60051 3.638317 -18.86176 -2.091313 -90.73416 24.65151 19.94193 0 0 -15.64878 3.348672 11.94556 9.755644
3.745841 116.4563 73.61721 0.6342122 -4.084296 -0.5679366 4.950423 5.233835 2.050149 -0 7.536541 -0 -9.561479 -14.04733 -1.417638 -0.2517632 -21.05115 -5.470018 -0 44.86893 -0 -3.010084 -7.171384 16.39444 -1.983387 2.126783 6.718577 1.143007 9.466144 -4.624913 1.105326 23.76623 4.50582 2.684218 -19.525 5.087867 4.244079 -18.49679 12.10287 81.27709 35.56563 -9.458647 -0 0 14.37113 -15.87866 10.02665 10.81476 4.190062 -18.88462 -1.991123 -90.95371 24.0099 19.82799 0 0 -15.08615 3.508637 11.2565 9.276041
3.872754 116.252 78.46147 0.5300662 -3.954348 -1.124297 4.783155 9.273134 1.718955 -0 5.474838 -0 -8.869782 -15.99129 -0.9238831 1.062813 -25.1862 -4.07543 -0 35.01853 -0 -2.514339 -7.192884 18.10055 -1.880686 1.958041 6.91181 0.8195725 9.215692 -4.200379 0.9782695 23.76534 4.690582 2.578942 -19.09145 5.106366 3.267401 -19.67031 11.97388 80.02354 34.14004 -7.138007 -0 0 16.21736 -17.51223 9.285952 12.08855 4.641352 -18.60342 -1.831335 -91.58143 23.68348 20.66249 0 0 -14.40799 3.252706 10.58365 9.484058
